{
	"asset":{
		"generator":"Khronos glTF Blender I/O v4.5.47",
		"version":"2.0"
	},
	"scene":0,
	"scenes":[
		{
			"name":"Scene",
			"nodes":[
				0
			]
		}
	],
	"nodes":[
		{
			"mesh":0,
			"name":"Retopo_banaani_dense.002"
		}
	],
	"materials":[
		{
			"name":"low",
			"normalTexture":{
				"index":0
			},
			"pbrMetallicRoughness":{
				"baseColorTexture":{
					"index":1
				},
				"metallicRoughnessTexture":{
					"index":2
				}
			}
		}
	],
	"meshes":[
		{
			"name":"mesh",
			"primitives":[
				{
					"attributes":{
						"POSITION":0,
						"NORMAL":1,
						"TEXCOORD_0":2
					},
					"indices":3,
					"material":0
				}
			]
		}
	],
	"textures":[
		{
			"sampler":0,
			"source":0
		},
		{
			"sampler":0,
			"source":1
		},
		{
			"sampler":0,
			"source":2
		}
	],
	"images":[
		{
			"mimeType":"image/png",
			"name":"Ucupaint low Normal",
			"uri":"Ucupaint%20low%20Normal.png"
		},
		{
			"mimeType":"image/png",
			"name":"Ucupaint low Color",
			"uri":"Ucupaint%20low%20Color.png"
		},
		{
			"mimeType":"image/png",
			"name":"Ucupaint low Metallic-Ucupaint low Roughness",
			"uri":"Ucupaint%20low%20Metallic-Ucupaint%20low%20Roughness.png"
		}
	],
	"accessors":[
		{
			"bufferView":0,
			"componentType":5126,
			"count":27716,
			"max":[
				2.964623212814331,
				3.975783348083496,
				4.0043840408325195
			],
			"min":[
				-2.7231132984161377,
				-7.43865966796875e-05,
				-4.487573623657227
			],
			"type":"VEC3"
		},
		{
			"bufferView":1,
			"componentType":5126,
			"count":27716,
			"type":"VEC3"
		},
		{
			"bufferView":2,
			"componentType":5126,
			"count":27716,
			"type":"VEC2"
		},
		{
			"bufferView":3,
			"componentType":5123,
			"count":143046,
			"type":"SCALAR"
		}
	],
	"bufferViews":[
		{
			"buffer":0,
			"byteLength":332592,
			"byteOffset":0,
			"target":34962
		},
		{
			"buffer":0,
			"byteLength":332592,
			"byteOffset":332592,
			"target":34962
		},
		{
			"buffer":0,
			"byteLength":221728,
			"byteOffset":665184,
			"target":34962
		},
		{
			"buffer":0,
			"byteLength":286092,
			"byteOffset":886912,
			"target":34963
		}
	],
	"samplers":[
		{
			"magFilter":9729,
			"minFilter":9987
		}
	],
	"buffers":[
		{
			"byteLength":1173004,
			"uri":"banaani.bin"
		}
	]
}
